<svg version="1.0" xmlns="http://www.w3.org/2000/svg"
 width="365.000000pt" height="556.000000pt" viewBox="0 0 365.000000 556.000000"
 preserveAspectRatio="xMidYMid meet">
<g transform="translate(0.000000,556.000000) scale(0.100000,-0.100000)"
fill="#000000" stroke="none">
<path d="M3632 5170 c0 -14 2 -19 5 -12 2 6 2 18 0 25 -3 6 -5 1 -5 -13z"/>
<path d="M272 4913 c-23 -131 -42 -244 -42 -250 0 -7 11 -13 24 -13 21 0 24 6
30 50 10 75 14 80 56 80 42 0 46 -5 56 -80 6 -44 9 -50 30 -50 13 0 24 6 24
13 0 6 -19 119 -42 250 -43 235 -43 237 -68 237 -25 0 -25 -2 -68 -237z m82
25 c4 -24 9 -58 12 -75 6 -32 5 -33 -26 -33 -31 0 -32 1 -26 33 3 17 8 51 12
75 4 23 10 42 14 42 4 0 10 -19 14 -42z"/>
<path d="M45 2750 c0 -1317 1 -1856 2 -1198 2 659 2 1737 0 2395 -1 659 -2
120 -2 -1197z"/>
<path d="M3635 2750 c0 -1317 1 -1856 2 -1198 2 659 2 1737 0 2395 -1 659 -2
120 -2 -1197z"/>
<path d="M314 4518 c-66 -75 -124 -182 -124 -227 0 -91 77 -123 114 -48 8 18
16 25 16 16 0 -17 -17 -114 -25 -139 -4 -12 5 -15 45 -15 40 0 49 3 45 15 -8
25 -25 122 -25 139 0 9 8 1 17 -17 22 -46 59 -53 90 -18 30 35 29 77 -2 144
-25 54 -110 172 -124 172 -4 0 -16 -10 -27 -22z"/>
<path d="M1813 3168 c-62 -68 -189 -252 -224 -324 -65 -135 -63 -242 7 -312
31 -31 39 -34 75 -29 51 7 62 16 100 90 l31 62 -7 -65 c-7 -69 -39 -245 -49
-270 -5 -13 9 -15 94 -15 84 0 99 2 95 15 -11 35 -44 210 -50 265 l-6 60 34
-60 c51 -91 108 -110 171 -55 70 62 73 179 7 314 -47 97 -228 346 -251 346 -4
0 -16 -10 -27 -22z"/>
<path d="M3295 1380 c8 -25 25 -122 25 -139 0 -9 -8 -1 -17 17 -22 46 -59 53
-90 18 -31 -37 -30 -84 6 -154 33 -63 99 -153 118 -159 15 -5 98 103 128 169
31 67 32 109 2 144 -31 35 -68 28 -90 -18 -9 -18 -17 -26 -17 -17 0 17 17 114
25 139 4 12 -5 15 -45 15 -40 0 -49 -3 -45 -15z"/>
<path d="M3230 838 c0 -7 19 -120 42 -250 43 -236 43 -238 68 -238 25 0 25 2
68 238 23 130 42 243 42 250 0 6 -11 12 -24 12 -21 0 -24 -6 -30 -50 -10 -75
-14 -80 -56 -80 -42 0 -46 5 -56 80 -6 44 -9 50 -30 50 -13 0 -24 -6 -24 -12z
m136 -200 c-3 -18 -8 -52 -12 -75 -4 -24 -10 -43 -14 -43 -4 0 -10 19 -14 43
-4 23 -9 57 -12 75 -6 31 -5 32 26 32 31 0 32 -1 26 -32z"/>
<path d="M42 330 c0 -14 2 -19 5 -12 2 6 2 18 0 25 -3 6 -5 1 -5 -13z"/>
</g>
</svg>
