<?xml version="1.0" standalone="no"?>
<!DOCTYPE svg PUBLIC "-//W3C//DTD SVG 20010904//EN"
 "http://www.w3.org/TR/2001/REC-SVG-20010904/DTD/svg10.dtd">
<svg version="1.0" xmlns="http://www.w3.org/2000/svg"
 width="63.000000pt" height="58.000000pt" viewBox="0 0 63.000000 58.000000"
 preserveAspectRatio="xMidYMid meet">

<g transform="translate(0.000000,58.000000) scale(0.100000,-0.100000)"
fill="#000000" stroke="none">
<path d="M225 534 c-134 -80 -212 -190 -203 -286 9 -87 60 -118 196 -118 l72
0 0 -40 0 -40 -55 0 c-52 0 -55 -1 -55 -25 l0 -25 130 0 130 0 0 25 c0 23 -3
25 -50 25 l-50 0 0 40 0 40 68 0 c130 0 181 32 190 118 6 66 -25 135 -91 200
-62 61 -161 122 -196 122 -14 0 -53 -16 -86 -36z"/>
</g>
</svg>
